<svg width="17" height="17" viewBox="0 0 17 17" fill="none" xmlns="http://www.w3.org/2000/svg">
<path d="M14.875 5.29376L11.9332 2.51876C11.7351 2.32759 11.4664 2.21566 11.1828 2.20626C11.0389 2.20314 10.8959 2.22757 10.7623 2.27807C10.6287 2.32856 10.5075 2.40407 10.4059 2.50001L8.65274 4.14376L2.43711 10C2.3381 10.0925 2.25954 10.2025 2.20596 10.3237C2.15239 10.445 2.12488 10.575 2.125 10.7063V13.5C2.125 13.7652 2.23694 14.0196 2.4362 14.2071C2.63546 14.3947 2.90571 14.5 3.1875 14.5H6.15586C6.43732 14.4989 6.70695 14.3933 6.90625 14.2063L14.875 6.70626C15.0721 6.518 15.1826 6.26431 15.1826 6.00001C15.1826 5.73571 15.0721 5.48202 14.875 5.29376ZM12.75 7.29376L9.78164 4.50001L11.1562 3.20626L14.1246 6.00001L12.75 7.29376Z" fill="white"/>
</svg>
