<svg width="29" height="30" viewBox="0 0 29 30" fill="none" xmlns="http://www.w3.org/2000/svg">
<g filter="url(#filter0_d_6_152)">
<path opacity="0.4" fill-rule="evenodd" clip-rule="evenodd" d="M13 1C8.02944 1 4 5.02944 4 10C4 14.9706 8.02944 19 13 19C15.125 19 17.078 18.2635 18.6177 17.0319L23 21.4142L24.4142 20L20.0319 15.6177C21.2635 14.078 22 12.125 22 10C22 5.02944 17.9706 1 13 1ZM6 10C6 6.13401 9.13401 3 13 3C16.866 3 20 6.13401 20 10C20 13.866 16.866 17 13 17C9.13401 17 6 13.866 6 10Z" fill="white"/>
</g>
<defs>
<filter id="filter0_d_6_152" x="-2" y="0" width="32" height="32" filterUnits="userSpaceOnUse" color-interpolation-filters="sRGB">
<feFlood flood-opacity="0" result="BackgroundImageFix"/>
<feColorMatrix in="SourceAlpha" type="matrix" values="0 0 0 0 0 0 0 0 0 0 0 0 0 0 0 0 0 0 127 0" result="hardAlpha"/>
<feOffset dy="4"/>
<feGaussianBlur stdDeviation="2"/>
<feComposite in2="hardAlpha" operator="out"/>
<feColorMatrix type="matrix" values="0 0 0 0 0 0 0 0 0 0 0 0 0 0 0 0 0 0 0.25 0"/>
<feBlend mode="normal" in2="BackgroundImageFix" result="effect1_dropShadow_6_152"/>
<feBlend mode="normal" in="SourceGraphic" in2="effect1_dropShadow_6_152" result="shape"/>
</filter>
</defs>
</svg>
