<svg width="68" height="67" viewBox="0 0 68 67" fill="none" xmlns="http://www.w3.org/2000/svg">
<g clip-path="url(#clip0_254_1673)">
<path fill-rule="evenodd" clip-rule="evenodd" d="M39.025 10.0501C41.081 10.0495 43.1154 10.4697 45.003 11.2846C46.8907 12.0996 48.5916 13.2922 50.0011 14.789C51.4107 16.2858 52.4991 18.0551 53.1994 19.9882C53.8997 21.9213 54.197 23.9773 54.0732 26.0296H54.1L54.0966 30.14C57.5346 30.1391 60.8414 31.4596 63.333 33.8284C65.8246 36.1972 67.3105 39.4331 67.4833 42.8666L67.5 43.5366C67.4974 46.9728 66.1749 50.2767 63.8058 52.7656C61.4366 55.2544 58.2019 56.738 54.77 56.9099L54.1 56.9266H54.0966L54.1 56.95H37.3466V43.808H45.6011L34 30.1601L22.4291 43.8113H30.65L30.6466 56.95H13.9C10.3459 56.9412 6.94019 55.5243 4.42864 53.0096C1.91709 50.4949 0.50442 47.0874 0.5 43.5333C0.500598 40.4463 1.56704 37.4541 3.51906 35.0626C5.47109 32.6711 8.18896 31.0269 11.2133 30.408C10.4696 28.4651 10.3472 26.3394 10.8629 24.324C11.3786 22.3086 12.507 20.5029 14.0924 19.156C15.6779 17.8091 17.6423 16.9875 19.7145 16.8043C21.7867 16.6212 23.8648 17.0856 25.6618 18.1336C26.9382 15.6939 28.8585 13.6505 31.2144 12.2254C33.5703 10.8003 36.2716 10.048 39.025 10.0501Z" fill="#4200FF"/>
</g>
<defs>
<clipPath id="clip0_254_1673">
<rect width="67" height="67" fill="white" transform="translate(0.5)"/>
</clipPath>
</defs>
</svg>
